<svg id="Layer_1" data-name="Layer 1" xmlns="http://www.w3.org/2000/svg" viewBox="0 0 1880.31 557.69"><defs><style>.cls-1{fill:#293241;}.cls-2{fill:#0638a5;}.cls-3{fill:#98c1d9;}.cls-4{fill:#3d5a80;}.cls-5{fill:#fff;}</style></defs><path d="M241.72,558.67.23,419.25V140.4L241.72,1,483.21,140.4V419.25ZM66.19,381.17,241.72,482.51,417.25,381.17V178.48L241.72,77.14,66.19,178.48Z" transform="translate(-0.23 -0.98)"/><polygon class="cls-1" points="161.09 232.43 161.09 325.26 241.49 371.68 321.89 325.26 321.89 232.43 241.49 186.01 161.09 232.43"/><polygon class="cls-2" points="241.49 371.68 241.49 278.85 161.09 232.43 161.09 325.26 241.49 371.68"/><polygon class="cls-3" points="321.89 325.26 321.89 232.43 241.49 278.85 241.49 371.68 321.89 325.26"/><polygon class="cls-4" points="161.09 232.43 161.09 325.26 241.49 371.68 241.49 278.85 161.09 232.43"/><polygon class="cls-1" points="0 139.42 65.95 177.5 241.49 76.16 241.49 0 0 139.42"/><polygon class="cls-1" points="241.49 0 482.98 139.42 417.02 177.5 241.49 76.16 241.49 0"/><polygon class="cls-1" points="65.95 380.19 0 418.27 241.49 557.69 241.49 481.53 65.95 380.19"/><polygon class="cls-1" points="241.49 481.53 417.02 380.19 482.98 418.27 241.49 557.69 241.49 481.53"/><polygon class="cls-4" points="0 139.42 65.95 177.5 65.95 380.19 0 418.27 0 139.42"/><polygon class="cls-4" points="417.02 177.5 482.98 139.42 482.98 418.27 417.02 380.19 417.02 177.5"/><path class="cls-5" d="M654.33,372.89l-11.85-32.66H559.83l-12.14,32.66H500.87l74.56-192.77h51.45l74.27,192.77ZM601.15,221.16l-30,82.94h60.11Z" transform="translate(-0.23 -0.98)"/><path class="cls-5" d="M820.79,372.89V355.26c-9.53,10.69-26.29,21.09-49.13,21.09-30.63,0-45.08-16.76-45.08-43.92V233.3h36.7V318c0,19.36,10.12,25.72,25.72,25.72,14.17,0,25.44-7.81,31.79-15.9V233.3H857.5V372.89Z" transform="translate(-0.23 -0.98)"/><path class="cls-5" d="M913.56,338.21V265.38H890.44V233.3h23.12V195.15h37V233.3h28.33v32.08H950.55v63c0,8.67,4.63,15.32,12.72,15.32,5.49,0,10.69-2,12.72-4.05l7.8,27.74c-5.49,4.92-15.32,9-30.64,9C927.43,376.35,913.56,363.06,913.56,338.21Z" transform="translate(-0.23 -0.98)"/><path class="cls-5" d="M1007.49,303c0-39.6,27.74-73.12,73.69-73.12,46.24,0,74,33.52,74,73.12,0,39.88-27.75,73.4-74,73.4C1035.23,376.35,1007.49,342.83,1007.49,303ZM1117,303c0-21.68-13-40.46-35.84-40.46s-35.55,18.78-35.55,40.46c0,22,12.72,40.75,35.55,40.75S1117,324.91,1117,303Z" transform="translate(-0.23 -0.98)"/><path class="cls-5" d="M1182.62,345.72l22.25-31.21a84.51,84.51,0,0,0,61.27,26c22.54,0,33.52-10.41,33.52-21.39,0-34.1-111-10.69-111-83.23,0-32.08,27.74-58.67,73.11-58.67,30.64,0,56.07,9.25,75.14,26.88l-22.83,30.06c-15.6-14.45-36.41-21.1-56.06-21.1-17.63,0-27.46,7.8-27.46,19.36,0,30.64,110.69,10.12,110.69,82.08,0,35.26-25.14,61.84-77.16,61.84C1227.12,376.35,1200.54,363.93,1182.62,345.72Z" transform="translate(-0.23 -0.98)"/><path class="cls-5" d="M1475.08,372.89v-85c0-19.36-10.11-25.43-26-25.43-14.16,0-25.43,8.09-31.79,16.47v93.93h-36.7V180.12h36.7v71.39c9-10.7,26.3-21.68,49.13-21.68,30.64,0,45.38,16.76,45.38,43.93v99.13Z" transform="translate(-0.23 -0.98)"/><path class="cls-5" d="M1551.66,303c0-39.6,27.75-73.12,73.7-73.12,46.24,0,74,33.52,74,73.12,0,39.88-27.74,73.4-74,73.4C1579.41,376.35,1551.66,342.83,1551.66,303Zm109.53,0c0-21.68-13-40.46-35.83-40.46s-35.55,18.78-35.55,40.46c0,22,12.72,40.75,35.55,40.75S1661.19,324.91,1661.19,303Z" transform="translate(-0.23 -0.98)"/><path class="cls-5" d="M1775.64,355v71.09h-36.71V233.3h36.71v17.63a53.9,53.9,0,0,1,43.06-21.1c35.83,0,61.84,26.59,61.84,73.12s-26,73.4-61.84,73.4C1802.22,376.35,1786.91,369.42,1775.64,355Zm66.76-52c0-24-14.17-40.46-35.26-40.46-11.85,0-25.43,6.93-31.5,15.89V327.8c6.07,8.67,19.65,15.9,31.5,15.9C1828.23,343.7,1842.4,327.22,1842.4,303Z" transform="translate(-0.23 -0.98)"/></svg>