<svg id="Layer_1" data-name="Layer 1" xmlns="http://www.w3.org/2000/svg" viewBox="0 0 1921 1081"><defs><style>.cls-1{fill:#fff;stroke:#000;stroke-miterlimit:10;}</style></defs><rect class="cls-1" x="0.5" y="0.5" width="1920" height="1080" rx="44.65"/><path d="M6730.83,7061.53v-42.9l-31.95-58.19h14.85l14.25,27.89c3.9,7.65,6.9,13.8,10.05,20.85h.3c2.85-6.6,6.3-13.2,10.2-20.85l14.55-27.89h14.85l-33.9,58v43.05Z" transform="translate(-6239 -6659)"/><path d="M6870.48,7009.93c0,34.8-21.15,53.25-46.95,53.25-26.7,0-45.45-20.7-45.45-51.3,0-32.1,19.95-53.09,46.95-53.09C6852.63,6958.79,6870.48,6979.93,6870.48,7009.93Zm-78.45,1.65c0,21.6,11.7,40.95,32.25,40.95s32.4-19.05,32.4-42c0-20.1-10.5-41.1-32.25-41.1S6792,6989.38,6792,7011.58Z" transform="translate(-6239 -6659)"/><path d="M6900.48,6960.44v59.84c0,22.65,10.05,32.25,23.55,32.25,15,0,24.6-9.9,24.6-32.25v-59.84h13.19v58.94c0,31.05-16.34,43.8-38.24,43.8-20.7,0-36.3-11.85-36.3-43.2v-59.54Z" transform="translate(-6239 -6659)"/><path d="M6984.48,6961.78a136.88,136.88,0,0,1,25.05-2.09c13.94,0,22.94,2.54,29.24,8.24,5.1,4.5,7.95,11.4,7.95,19.2,0,13.35-8.4,22.2-19.05,25.8v.45c7.8,2.7,12.45,9.9,14.85,20.4,3.3,14.1,5.7,23.85,7.8,27.75h-13.5c-1.65-2.85-3.9-11.55-6.75-24.15-3-13.95-8.4-19.2-20.24-19.65h-12.3v43.8h-13.05Zm13.05,46.05h13.35c13.94,0,22.79-7.65,22.79-19.2,0-13.05-9.45-18.75-23.24-18.9a53.69,53.69,0,0,0-12.9,1.2Z" transform="translate(-6239 -6659)"/><path d="M7113.32,7029.73l-10.5,31.8h-13.5l34.35-101.09h15.75l34.5,101.09H7160l-10.8-31.8Zm33.15-10.2-9.9-29.1c-2.25-6.6-3.75-12.6-5.25-18.45h-.3c-1.5,6-3.15,12.15-5.1,18.3l-9.9,29.25Z" transform="translate(-6239 -6659)"/><path d="M7273.37,7017.13c-.75-14.1-1.65-31.05-1.5-43.65h-.45c-3.45,11.85-7.65,24.45-12.75,38.4l-17.85,49.05h-9.9l-16.35-48.15c-4.8-14.25-8.85-27.3-11.7-39.3h-.3c-.3,12.6-1,29.55-1.95,44.7l-2.7,43.35h-12.45l7.05-101.09h16.65l17.25,48.89c4.2,12.45,7.65,23.55,10.2,34.05h.45c2.55-10.2,6.15-21.3,10.65-34.05l18-48.89h16.65l6.3,101.09h-12.75Z" transform="translate(-6239 -6659)"/><path d="M7323.62,7029.73l-10.5,31.8h-13.5L7334,6960.44h15.75l34.5,101.09h-13.95l-10.8-31.8Zm33.15-10.2-9.9-29.1c-2.25-6.6-3.75-12.6-5.25-18.45h-.3c-1.5,6-3.15,12.15-5.1,18.3l-9.9,29.25Z" transform="translate(-6239 -6659)"/><path d="M7392.17,7053.88l56.1-82.05v-.45H7397v-10.94h68.25v7.94l-55.8,81.75v.45H7466v10.95h-73.8Z" transform="translate(-6239 -6659)"/><path d="M7495.07,6960.44v101.09h-13V6960.44Z" transform="translate(-6239 -6659)"/><path d="M7517.87,7061.53V6960.44h14.25l32.4,51.14a286.19,286.19,0,0,1,18.15,32.85l.3-.15c-1.2-13.5-1.5-25.8-1.5-41.55v-42.29h12.3v101.09h-13.2l-32.1-51.3a320.9,320.9,0,0,1-18.9-33.75l-.45.15c.75,12.75,1.05,24.9,1.05,41.7v43.2Z" transform="translate(-6239 -6659)"/><path d="M7693.52,7057a94.19,94.19,0,0,1-31.05,5.55c-15.3,0-27.9-3.9-37.8-13.35-8.7-8.4-14.1-21.9-14.1-37.65.15-30.15,20.85-52.2,54.75-52.2,11.7,0,20.85,2.56,25.2,4.65l-3.15,10.65c-5.4-2.4-12.15-4.35-22.35-4.35-24.6,0-40.65,15.3-40.65,40.65,0,25.65,15.45,40.8,39,40.8,8.55,0,14.4-1.2,17.4-2.7v-30.15h-20.55v-10.5h33.3Z" transform="translate(-6239 -6659)"/><path d="M6731.13,7141.64a150.17,150.17,0,0,1,25.05-2c12.9,0,22.35,3,28.35,8.39,5.55,4.8,8.85,12.15,8.85,21.15,0,9.15-2.7,16.35-7.8,21.6-6.9,7.35-18.15,11.1-30.9,11.1a44.92,44.92,0,0,1-10.5-.9v40.5h-13.05Zm13.05,48.74a43.76,43.76,0,0,0,10.8,1.05c15.75,0,25.35-7.65,25.35-21.6,0-13.35-9.45-19.8-23.85-19.8a54.76,54.76,0,0,0-12.3,1.05Z" transform="translate(-6239 -6659)"/><path d="M6810.93,7141.78a136.88,136.88,0,0,1,25-2.09c14,0,23,2.54,29.25,8.24,5.1,4.5,8,11.4,8,19.2,0,13.35-8.4,22.2-19.05,25.8v.45c7.8,2.7,12.45,9.9,14.85,20.4,3.3,14.1,5.7,23.85,7.8,27.75h-13.5c-1.65-2.85-3.9-11.55-6.75-24.15-3-13.95-8.4-19.2-20.25-19.65H6824v43.8h-13Zm13,46.05h13.35c13.95,0,22.8-7.65,22.8-19.2,0-13.05-9.45-18.75-23.25-18.9a53.69,53.69,0,0,0-12.9,1.2Z" transform="translate(-6239 -6659)"/><path d="M6978.47,7189.93c0,34.8-21.15,53.25-46.94,53.25-26.7,0-45.45-20.7-45.45-51.3,0-32.1,19.95-53.1,46.95-53.1C6960.62,7138.78,6978.47,7159.93,6978.47,7189.93Zm-78.44,1.65c0,21.6,11.7,40.95,32.25,40.95s32.39-19.05,32.39-42c0-20.1-10.5-41.1-32.24-41.1S6900,7169.38,6900,7191.58Z" transform="translate(-6239 -6659)"/><path d="M7080.62,7197.13c-.75-14.1-1.65-31.05-1.5-43.65h-.45c-3.45,11.85-7.65,24.45-12.75,38.4l-17.85,49.05h-9.89l-16.35-48.15c-4.8-14.25-8.85-27.3-11.7-39.3h-.3c-.3,12.6-1.05,29.55-1.95,44.7l-2.7,43.35h-12.45l7.05-101.09h16.65l17.25,48.89c4.2,12.45,7.65,23.55,10.2,34.05h.44c2.56-10.2,6.15-21.3,10.65-34.05l18-48.89h16.65l6.3,101.09h-12.75Z" transform="translate(-6239 -6659)"/><path d="M7202.42,7189.93c0,34.8-21.15,53.25-46.95,53.25-26.7,0-45.45-20.7-45.45-51.3,0-32.1,19.95-53.1,46.95-53.1C7184.57,7138.78,7202.42,7159.93,7202.42,7189.93Zm-78.45,1.65c0,21.6,11.7,40.95,32.25,40.95s32.4-19.05,32.4-42c0-20.1-10.5-41.1-32.25-41.1C7134.77,7149.43,7124,7169.38,7124,7191.58Z" transform="translate(-6239 -6659)"/><path d="M7234.82,7151.53h-30.74v-11.09h74.84v11.09H7248v90h-13.2Z" transform="translate(-6239 -6659)"/><path d="M7303.22,7140.44v101.09h-13.05V7140.44Z" transform="translate(-6239 -6659)"/><path d="M7412.42,7189.93c0,34.8-21.15,53.25-46.95,53.25-26.7,0-45.45-20.7-45.45-51.3,0-32.1,19.95-53.1,46.95-53.1C7394.57,7138.78,7412.42,7159.93,7412.42,7189.93Zm-78.45,1.65c0,21.6,11.7,40.95,32.25,40.95s32.4-19.05,32.4-42c0-20.1-10.5-41.1-32.25-41.1C7344.77,7149.43,7334,7169.38,7334,7191.58Z" transform="translate(-6239 -6659)"/><path d="M7429.37,7241.53V7140.44h14.25l32.4,51.14a286.19,286.19,0,0,1,18.15,32.85l.3-.15c-1.2-13.5-1.5-25.8-1.5-41.55v-42.29h12.3v101.09h-13.2l-32.1-51.3a320.9,320.9,0,0,1-18.9-33.75l-.45.15c.75,12.75,1.05,24.9,1.05,41.7v43.2Z" transform="translate(-6239 -6659)"/><path d="M7544.42,7209.73l-10.5,31.8h-13.5l34.35-101.09h15.75l34.5,101.09h-14l-10.8-31.8Zm33.15-10.2-9.9-29.1c-2.25-6.6-3.75-12.6-5.25-18.45h-.3c-1.5,6-3.15,12.15-5.1,18.3l-9.9,29.25Z" transform="translate(-6239 -6659)"/><path d="M7619.87,7140.44h13.05v90.14h43.2v10.95h-56.25Z" transform="translate(-6239 -6659)"/><path d="M6837.4,7320.44v101.09h-13V7320.44Z" transform="translate(-6239 -6659)"/><path d="M6945.4,7377.13c-.75-14.1-1.65-31.05-1.5-43.65h-.45c-3.45,11.85-7.65,24.45-12.75,38.4l-17.85,49.05H6903l-16.35-48.15c-4.8-14.25-8.85-27.3-11.7-39.3h-.3c-.3,12.6-1.05,29.55-2,44.7l-2.7,43.35H6857.5l7.05-101.09h16.65l17.25,48.89c4.2,12.45,7.65,23.55,10.2,34.05h.45c2.55-10.2,6.15-21.3,10.65-34.05l18-48.89h16.65l6.3,101.09H6948Z" transform="translate(-6239 -6659)"/><path d="M6995.65,7389.73l-10.5,31.8h-13.5L7006,7320.44h15.75l34.5,101.09H7042.3l-10.8-31.8Zm33.15-10.2-9.9-29.1c-2.25-6.6-3.75-12.6-5.25-18.45h-.3c-1.5,6-3.15,12.15-5.1,18.3l-9.9,29.25Z" transform="translate(-6239 -6659)"/><path d="M7145.8,7417a94.19,94.19,0,0,1-31.05,5.55c-15.3,0-27.9-3.9-37.8-13.35-8.7-8.4-14.1-21.9-14.1-37.65.15-30.15,20.85-52.2,54.75-52.2,11.7,0,20.85,2.56,25.2,4.66l-3.15,10.64c-5.4-2.39-12.15-4.35-22.35-4.35-24.6,0-40.65,15.3-40.65,40.65,0,25.65,15.45,40.8,39,40.8,8.55,0,14.4-1.2,17.4-2.7v-30.15H7112.5v-10.5h33.3Z" transform="translate(-6239 -6659)"/><path d="M7218.1,7374.13h-39.3v36.45h43.8v10.95h-56.85V7320.44h54.6v10.94H7178.8v31.95h39.3Z" transform="translate(-6239 -6659)"/><path d="M7284.4,7320.44v42.29h48.9v-42.29h13.2v101.09h-13.2v-47.4h-48.9v47.4h-13V7320.44Z" transform="translate(-6239 -6659)"/><path d="M7421.5,7374.13h-39.3v36.45H7426v10.95h-56.85V7320.44h54.6v10.94H7382.2v31.95h39.3Z" transform="translate(-6239 -6659)"/><path d="M7443,7321.79a135.93,135.93,0,0,1,25.05-2.1c13.95,0,22.95,2.54,29.24,8.24,5.1,4.5,7.95,11.4,7.95,19.2,0,13.35-8.4,22.2-19,25.8v.45c7.81,2.7,12.45,9.9,14.85,20.4,3.3,14.1,5.7,23.85,7.8,27.75h-13.5c-1.65-2.85-3.9-11.55-6.75-24.15-3-13.95-8.39-19.2-20.24-19.65H7456v43.8H7443Zm13.05,46h13.35c13.94,0,22.79-7.65,22.79-19.2,0-13.05-9.44-18.75-23.24-18.9a53.69,53.69,0,0,0-12.9,1.2Z" transform="translate(-6239 -6659)"/><path d="M7576,7374.13H7536.7v36.45h43.79v10.95h-56.84V7320.44h54.59v10.94H7536.7v31.95H7576Z" transform="translate(-6239 -6659)"/></svg>